G04 #@! TF.GenerationSoftware,KiCad,Pcbnew,5.1.10*
G04 #@! TF.CreationDate,2021-07-30T23:12:27+12:00*
G04 #@! TF.ProjectId,adelheid,6164656c-6865-4696-942e-6b696361645f,2.0*
G04 #@! TF.SameCoordinates,Original*
G04 #@! TF.FileFunction,Profile,NP*
%FSLAX46Y46*%
G04 Gerber Fmt 4.6, Leading zero omitted, Abs format (unit mm)*
G04 Created by KiCad (PCBNEW 5.1.10) date 2021-07-30 23:12:27*
%MOMM*%
%LPD*%
G01*
G04 APERTURE LIST*
G04 #@! TA.AperFunction,Profile*
%ADD10C,0.150000*%
G04 #@! TD*
G04 APERTURE END LIST*
D10*
X180340000Y-22098000D02*
G75*
G02*
X180848000Y-22606000I0J-508000D01*
G01*
X170180000Y-22606000D02*
G75*
G02*
X170688000Y-22098000I508000J0D01*
G01*
X170180000Y-23876000D02*
X170180000Y-22606000D01*
X170180000Y-23876000D02*
G75*
G02*
X169623491Y-24432509I-556509J0D01*
G01*
X27412500Y-24432509D02*
X169623491Y-24432509D01*
X181356000Y-24384000D02*
G75*
G02*
X180848000Y-23876000I0J508000D01*
G01*
X362458000Y-24384000D02*
X181356000Y-24384000D01*
X180848000Y-22606000D02*
X180848000Y-23876000D01*
X170688000Y-22098000D02*
X180340000Y-22098000D01*
X362499949Y-153707503D02*
G75*
G03*
X364499949Y-151707503I0J2000000D01*
G01*
X362499949Y-24432509D02*
G75*
G02*
X364499949Y-26432509I0J-2000000D01*
G01*
X27412500Y-24432509D02*
G75*
G03*
X25412500Y-26432509I0J-2000000D01*
G01*
X27412500Y-153707503D02*
G75*
G02*
X25412500Y-151707503I0J2000000D01*
G01*
X182630000Y-167625232D02*
X248110000Y-153707503D01*
X168600000Y-167625232D02*
X182630000Y-167625232D01*
X103126700Y-153707503D02*
X168600000Y-167625232D01*
X248110000Y-153707503D02*
X362499949Y-153707503D01*
X27412500Y-153707503D02*
X103126700Y-153707503D01*
X364499949Y-26432509D02*
X364499949Y-151707503D01*
X25412500Y-26432509D02*
X25412500Y-151707503D01*
M02*
