G04 #@! TF.GenerationSoftware,KiCad,Pcbnew,5.1.10*
G04 #@! TF.CreationDate,2021-08-01T15:31:46+12:00*
G04 #@! TF.ProjectId,adelheid,6164656c-6865-4696-942e-6b696361645f,2.0*
G04 #@! TF.SameCoordinates,Original*
G04 #@! TF.FileFunction,Soldermask,Top*
G04 #@! TF.FilePolarity,Negative*
%FSLAX46Y46*%
G04 Gerber Fmt 4.6, Leading zero omitted, Abs format (unit mm)*
G04 Created by KiCad (PCBNEW 5.1.10) date 2021-08-01 15:31:46*
%MOMM*%
%LPD*%
G01*
G04 APERTURE LIST*
%ADD10C,1.852000*%
%ADD11C,4.089800*%
%ADD12O,1.802000X1.802000*%
%ADD13C,0.752000*%
%ADD14O,1.102000X2.202000*%
%ADD15O,1.102000X1.702000*%
%ADD16C,3.150000*%
%ADD17C,4.502000*%
G04 APERTURE END LIST*
D10*
X148085290Y-50522691D03*
X138147310Y-48410309D03*
D11*
X143116300Y-49466500D03*
D12*
X209550000Y-26670000D03*
X212090000Y-26670000D03*
X214630000Y-26670000D03*
X217170000Y-26670000D03*
X219710000Y-26670000D03*
G36*
G01*
X223100000Y-27571000D02*
X221400000Y-27571000D01*
G75*
G02*
X221349000Y-27520000I0J51000D01*
G01*
X221349000Y-25820000D01*
G75*
G02*
X221400000Y-25769000I51000J0D01*
G01*
X223100000Y-25769000D01*
G75*
G02*
X223151000Y-25820000I0J-51000D01*
G01*
X223151000Y-27520000D01*
G75*
G02*
X223100000Y-27571000I-51000J0D01*
G01*
G37*
X134112000Y-26670000D03*
X136652000Y-26670000D03*
X139192000Y-26670000D03*
X141732000Y-26670000D03*
X144272000Y-26670000D03*
G36*
G01*
X147662000Y-27571000D02*
X145962000Y-27571000D01*
G75*
G02*
X145911000Y-27520000I0J51000D01*
G01*
X145911000Y-25820000D01*
G75*
G02*
X145962000Y-25769000I51000J0D01*
G01*
X147662000Y-25769000D01*
G75*
G02*
X147713000Y-25820000I0J-51000D01*
G01*
X147713000Y-27520000D01*
G75*
G02*
X147662000Y-27571000I-51000J0D01*
G01*
G37*
D13*
X172274000Y-29188000D03*
D14*
X170844000Y-29718000D03*
D15*
X170844000Y-25538000D03*
X179484000Y-25538000D03*
D14*
X179484000Y-29718000D03*
D13*
X178054000Y-29188000D03*
D10*
X194287890Y-52360009D03*
X184349910Y-54472391D03*
D11*
X189318900Y-53416200D03*
X145028937Y-143670541D03*
X121674685Y-138706442D03*
D16*
X141860363Y-158577511D03*
X118506111Y-153613411D03*
D10*
X136604490Y-150319291D03*
X126666510Y-148206909D03*
D11*
X131635500Y-149263100D03*
X331177900Y-92925900D03*
X307301900Y-92925900D03*
D16*
X331177900Y-108165900D03*
X307301900Y-108165900D03*
D10*
X324319900Y-101180900D03*
X314159900Y-101180900D03*
D11*
X319239900Y-101180900D03*
D10*
X46596300Y-101180900D03*
X36436300Y-101180900D03*
D11*
X41516300Y-101180900D03*
D10*
X53060600Y-82143600D03*
X42900600Y-82143600D03*
D11*
X47980600Y-82143600D03*
D10*
X257000490Y-141247309D03*
X247062510Y-143359691D03*
D11*
X252031500Y-142303500D03*
D10*
X44856400Y-139293600D03*
X34696400Y-139293600D03*
D11*
X39776400Y-139293600D03*
D10*
X360045000Y-144043400D03*
X349885000Y-144043400D03*
D11*
X354965000Y-144043400D03*
D10*
X360032300Y-96418400D03*
X349872300Y-96418400D03*
D11*
X354952300Y-96418400D03*
D10*
X355765100Y-77368400D03*
X345605100Y-77368400D03*
D11*
X350685100Y-77368400D03*
D10*
X351612200Y-58331100D03*
X341452200Y-58331100D03*
D11*
X346532200Y-58331100D03*
D10*
X327787000Y-63080900D03*
X317627000Y-63080900D03*
D11*
X322707000Y-63080900D03*
D10*
X347395800Y-39281100D03*
X337235800Y-39281100D03*
D11*
X342315800Y-39281100D03*
D10*
X340995000Y-144043400D03*
X330835000Y-144043400D03*
D11*
X335915000Y-144043400D03*
D10*
X340995000Y-124993400D03*
X330835000Y-124993400D03*
D11*
X335915000Y-124993400D03*
D10*
X327190100Y-82143600D03*
X317030100Y-82143600D03*
D11*
X322110100Y-82143600D03*
D10*
X308749700Y-63093600D03*
X298589700Y-63093600D03*
D11*
X303669700Y-63093600D03*
D10*
X321335400Y-39293800D03*
X311175400Y-39293800D03*
D11*
X316255400Y-39293800D03*
D10*
X321932300Y-144043400D03*
X311772300Y-144043400D03*
D11*
X316852300Y-144043400D03*
D10*
X303377600Y-82130900D03*
X293217600Y-82130900D03*
D11*
X298297600Y-82130900D03*
D10*
X289687000Y-63093600D03*
X279527000Y-63093600D03*
D11*
X284607000Y-63093600D03*
D10*
X294767000Y-37795200D03*
X284607000Y-37795200D03*
D11*
X289687000Y-37795200D03*
D10*
X310057800Y-120243600D03*
X299897800Y-120243600D03*
D11*
X304977800Y-120243600D03*
D10*
X293370000Y-101206300D03*
X283210000Y-101206300D03*
D11*
X288290000Y-101206300D03*
D10*
X284340300Y-82130900D03*
X274180300Y-82130900D03*
D11*
X279260300Y-82130900D03*
D10*
X270649700Y-61595000D03*
X260489700Y-61595000D03*
D11*
X265569700Y-61595000D03*
D10*
X275704300Y-37795200D03*
X265544300Y-37795200D03*
D11*
X270624300Y-37795200D03*
D10*
X283845000Y-120230900D03*
X273685000Y-120230900D03*
D11*
X278765000Y-120230900D03*
D10*
X274320000Y-101206300D03*
X264160000Y-101206300D03*
D11*
X269240000Y-101206300D03*
D10*
X263731490Y-81404909D03*
X253793510Y-83517291D03*
D11*
X258762500Y-82461100D03*
D10*
X250485390Y-64767909D03*
X240547410Y-66880291D03*
D11*
X245516400Y-65824100D03*
D10*
X254828790Y-39482209D03*
X244890810Y-41594591D03*
D11*
X249859800Y-40538400D03*
D10*
X262359890Y-120635209D03*
X252421910Y-122747591D03*
D11*
X257390900Y-121691400D03*
D10*
X253711190Y-102994909D03*
X243773210Y-105107291D03*
D11*
X248742200Y-104051100D03*
D10*
X245100590Y-85354609D03*
X235162610Y-87466991D03*
D11*
X240131600Y-86410800D03*
D10*
X231829090Y-68704909D03*
X221891110Y-70817291D03*
D11*
X226860100Y-69761100D03*
D10*
X236197890Y-43444609D03*
X226259910Y-45556991D03*
D11*
X231228900Y-44500800D03*
D10*
X243716290Y-124597609D03*
X233778310Y-126709991D03*
D11*
X238747300Y-125653800D03*
D10*
X235105690Y-106931909D03*
X225167710Y-109044291D03*
D11*
X230136700Y-107988100D03*
D10*
X226469690Y-89317009D03*
X216531710Y-91429391D03*
D11*
X221500700Y-90373200D03*
D10*
X213223590Y-72680009D03*
X203285610Y-74792391D03*
D11*
X208254600Y-73736200D03*
D10*
X212918790Y-48397609D03*
X202980810Y-50509991D03*
D11*
X207949800Y-49453800D03*
X222406415Y-140154242D03*
X199052163Y-145118341D03*
D16*
X225574989Y-155061211D03*
X202220737Y-160025311D03*
D10*
X217414590Y-149654709D03*
X207476610Y-151767091D03*
D11*
X212445600Y-150710900D03*
D10*
X225098090Y-128560009D03*
X215160110Y-130672391D03*
D11*
X220129100Y-129616200D03*
D10*
X216474790Y-110907009D03*
X206536810Y-113019391D03*
D11*
X211505800Y-111963200D03*
D10*
X207851490Y-93266709D03*
X197913510Y-95379091D03*
D11*
X202882500Y-94322900D03*
D10*
X194579990Y-76629709D03*
X184642010Y-78742091D03*
D11*
X189611000Y-77685900D03*
D10*
X206454490Y-132535109D03*
X196516510Y-134647491D03*
D11*
X201485500Y-133591300D03*
D10*
X197843890Y-114882109D03*
X187905910Y-116994491D03*
D11*
X192874900Y-115938300D03*
D10*
X189233290Y-97241809D03*
X179295310Y-99354191D03*
D11*
X184264300Y-98298000D03*
D10*
X166462190Y-78742091D03*
X156524210Y-76629709D03*
D11*
X161493200Y-77685900D03*
D10*
X166703490Y-54485091D03*
X156765510Y-52372709D03*
D11*
X161734500Y-53428900D03*
D10*
X164557190Y-156250191D03*
X154619210Y-154137809D03*
D11*
X159588200Y-155194000D03*
D10*
X159185090Y-135625391D03*
X149247110Y-133513009D03*
D11*
X154216100Y-134569200D03*
D10*
X153825690Y-115013291D03*
X143887710Y-112900909D03*
D11*
X148856700Y-113957100D03*
D10*
X153152590Y-95379091D03*
X143214610Y-93266709D03*
D11*
X148183600Y-94322900D03*
D10*
X147818590Y-74805091D03*
X137880610Y-72692709D03*
D11*
X142849600Y-73748900D03*
D10*
X140554190Y-131675691D03*
X130616210Y-129563309D03*
D11*
X135585200Y-130619500D03*
D10*
X135182090Y-111050891D03*
X125244110Y-108938509D03*
D11*
X130213100Y-109994700D03*
D10*
X134508990Y-91467491D03*
X124571010Y-89355109D03*
D11*
X129540000Y-90411300D03*
D10*
X129174990Y-70842691D03*
X119237010Y-68730309D03*
D11*
X124206000Y-69786500D03*
D10*
X124818890Y-45556991D03*
X114880910Y-43444609D03*
D11*
X119849900Y-44500800D03*
D10*
X121910590Y-127713291D03*
X111972610Y-125600909D03*
D11*
X116941600Y-126657100D03*
D10*
X116589290Y-107126591D03*
X106651310Y-105014209D03*
D11*
X111620300Y-106070400D03*
D10*
X115890790Y-87492391D03*
X105952810Y-85380009D03*
D11*
X110921800Y-86436200D03*
D10*
X110544090Y-66867591D03*
X100606110Y-64755209D03*
D11*
X105575100Y-65811400D03*
D10*
X106200690Y-41607291D03*
X96262710Y-39494909D03*
D11*
X101231700Y-40551100D03*
D10*
X104003590Y-143385091D03*
X94065610Y-141272709D03*
D11*
X99034600Y-142328900D03*
D10*
X103292390Y-123763591D03*
X93354410Y-121651209D03*
D11*
X98323400Y-122707400D03*
D10*
X97958390Y-103164191D03*
X88020410Y-101051809D03*
D11*
X92989400Y-102108000D03*
D10*
X97259890Y-83529991D03*
X87321910Y-81417609D03*
D11*
X92290900Y-82473800D03*
D10*
X90563700Y-61607700D03*
X80403700Y-61607700D03*
D11*
X85483700Y-61607700D03*
D10*
X85509100Y-37769800D03*
X75349100Y-37769800D03*
D11*
X80429100Y-37769800D03*
D10*
X82918300Y-120230900D03*
X72758300Y-120230900D03*
D11*
X77838300Y-120230900D03*
D10*
X77546200Y-101193600D03*
X67386200Y-101193600D03*
D11*
X72466200Y-101193600D03*
X71793100Y-82143600D03*
D10*
X66713100Y-82143600D03*
X76873100Y-82143600D03*
X71518368Y-63093600D03*
X61358368Y-63093600D03*
D11*
X66438368Y-63093600D03*
D10*
X66446400Y-37782500D03*
X56286400Y-37782500D03*
D11*
X61366400Y-37782500D03*
X58851800Y-128498600D03*
X34975800Y-128498600D03*
D16*
X58851800Y-113258600D03*
X34975800Y-113258600D03*
D10*
X51993800Y-120243600D03*
X41833800Y-120243600D03*
D11*
X46913800Y-120243600D03*
D10*
X51358800Y-101180900D03*
X41198800Y-101180900D03*
D11*
X46278800Y-101180900D03*
D10*
X52463700Y-63093600D03*
X42303700Y-63093600D03*
D11*
X47383700Y-63093600D03*
D10*
X42506900Y-39293800D03*
X32346900Y-39293800D03*
D11*
X37426900Y-39293800D03*
D17*
X56896000Y-72644000D03*
X345440000Y-134493000D03*
X240665000Y-144526000D03*
X337058000Y-48768000D03*
X52324000Y-139573000D03*
X111760000Y-145034000D03*
X121827220Y-27932509D03*
X229192785Y-27932509D03*
M02*
