M48
; DRILL file {KiCad 5.1.10} date Fri Jul 30 23:12:36 2021
; FORMAT={-:-/ absolute / inch / decimal}
; #@! TF.CreationDate,2021-07-30T23:12:36+12:00
; #@! TF.GenerationSoftware,Kicad,Pcbnew,5.1.10
; #@! TF.FileFunction,Plated,1,2,PTH
FMAT,2
INCH
T1C0.0157
T2C0.0236
T3C0.0394
T4C0.0409
T5C0.0579
T6C0.0866
%
G90
G05
T1
X1.955Y-1.395
X2.0505Y-1.6675
X2.1713Y-4.8553
X2.175Y-3.57
X2.176Y-4.1185
X2.2482Y-2.593
X2.39Y-5.6475
X2.399Y-1.14
X2.7795Y-1.06
X2.865Y-5.755
X3.0175Y-1.1625
X4.8521Y-1.9024
X5.0285Y-1.2205
X5.0775Y-1.141
X5.21Y-1.72
X5.95Y-1.56
X5.95Y-1.63
X5.95Y-1.68
X6.01Y-1.32
X6.06Y-1.26
X6.1Y-1.04
X6.1005Y-1.7545
X6.19Y-1.79
X6.215Y-1.505
X6.3951Y-1.4699
X6.42Y-1.43
X6.42Y-1.51
X6.44Y-1.28
X6.4525Y-2.2505
X6.56Y-1.04
X6.56Y-2.485
X6.5688Y-1.2
X6.58Y-1.565
X6.6365Y-2.4565
X6.68Y-1.2
X6.68Y-2.16
X6.69Y-1.45
X6.76Y-1.54
X6.76Y-1.74
X6.76Y-1.81
X6.8155Y-2.0095
X6.82Y-1.24
X6.87Y-1.22
X6.92Y-1.3
X6.925Y-2.89
X6.97Y-1.22
X7.0045Y-2.1767
X7.0045Y-3.7205
X7.025Y-1.815
X7.03Y-2.29
X7.06Y-2.33
X7.07Y-2.04
X7.075Y-1.815
X7.16Y-1.37
X7.18Y-1.08
X7.21Y-1.37
X7.21Y-1.59
X7.23Y-1.98
X7.26Y-1.08
X7.26Y-1.37
X7.31Y-1.37
X7.31Y-1.42
X7.33Y-1.05
X7.33Y-1.13
X7.34Y-1.29
X7.52Y-1.37
X7.55Y-1.1904
X7.65Y-1.2652
X7.74Y-1.89
X7.78Y-1.8878
X7.79Y-1.12
X7.82Y-1.8855
X7.86Y-2.99
X7.9Y-2.1
X7.995Y-5.99
X8.01Y-1.2652
X8.01Y-1.44
X8.365Y-3.655
X8.7156Y-4.345
X8.78Y-1.705
X9.05Y-5.04
X9.2695Y-1.1415
X9.4586Y-1.8026
X9.526Y-1.0605
X11.009Y-1.14
X11.0286Y-1.5986
X11.2535Y-1.06
X11.945Y-1.605
X12.812Y-1.1505
X12.8824Y-1.6044
X12.95Y-1.99
X13.1865Y-1.07
X13.335Y-2.745
X13.89Y-5.365
T3
X5.46Y-1.04
X5.56Y-1.04
X5.67Y-1.04
X5.78Y-1.04
X5.89Y-1.04
X6.0Y-1.04
X8.19Y-1.04
X8.29Y-1.04
X8.39Y-1.04
X8.49Y-1.04
X8.59Y-1.04
X8.69Y-1.04
T4
X1.4235Y-1.747
X1.516Y-5.684
X1.5235Y-1.747
X1.5845Y-4.1835
X1.616Y-5.684
X1.6845Y-4.1835
X1.772Y-4.1835
X1.797Y-4.934
X1.8155Y-2.684
X1.839Y-3.434
X1.872Y-4.1835
X1.897Y-4.934
X1.9155Y-2.684
X1.939Y-3.434
X2.366Y-1.6875
X2.466Y-1.6875
X2.5657Y-2.684
X2.6657Y-2.684
X2.7765Y-3.434
X2.803Y-4.184
X2.8765Y-3.434
X2.903Y-4.184
X3.0145Y-4.9335
X3.1145Y-4.9335
X3.1165Y-1.687
X3.2165Y-1.687
X3.3155Y-2.6255
X3.4155Y-2.6255
X3.543Y-3.4322
X3.5705Y-4.2052
X3.6408Y-3.453
X3.6683Y-4.226
X3.7805Y-5.0162
X3.8085Y-5.7887
X3.8783Y-5.037
X3.895Y-1.7817
X3.9063Y-5.8095
X3.9928Y-1.8025
X4.066Y-2.7762
X4.1638Y-2.797
X4.2765Y-3.5882
X4.304Y-4.3612
X4.3743Y-3.609
X4.4018Y-4.382
X4.5135Y-5.1717
X4.6113Y-5.1925
X4.628Y-1.9372
X4.7258Y-1.958
X4.7995Y-2.9327
X4.8973Y-2.9535
X5.0095Y-3.7447
X5.036Y-4.5157
X5.092Y-6.0617
X5.1073Y-3.7655
X5.1338Y-4.5365
X5.1898Y-6.0825
X5.2475Y-5.3277
X5.3453Y-5.3485
X5.5335Y-3.0887
X5.544Y-2.1327
X5.6313Y-3.1095
X5.6418Y-2.1535
X5.7435Y-3.8987
X5.77Y-4.6717
X5.8413Y-3.9195
X5.8678Y-4.6925
X5.981Y-5.4832
X6.0788Y-5.504
X6.1925Y-6.2952
X6.2675Y-3.2437
X6.277Y-2.2887
X6.2903Y-6.316
X6.3653Y-3.2645
X6.3748Y-2.3095
X7.2472Y-4.076
X7.345Y-4.0552
X7.4462Y-2.309
X7.4577Y-3.2645
X7.544Y-2.2882
X7.5555Y-3.2437
X7.5862Y-4.7705
X7.684Y-4.7497
X7.9252Y-5.4655
X7.9802Y-3.9195
X8.023Y-5.4447
X8.078Y-3.8987
X8.1797Y-2.153
X8.1917Y-3.109
X8.2775Y-2.1322
X8.2895Y-3.0882
X8.3197Y-4.614
X8.3567Y-6.1395
X8.4175Y-4.5932
X8.4545Y-6.1187
X8.6592Y-5.309
X8.7132Y-3.764
X8.757Y-5.2882
X8.811Y-3.7432
X8.9242Y-2.9525
X9.022Y-2.9317
X9.0532Y-4.4575
X9.0962Y-1.958
X9.151Y-4.4367
X9.194Y-1.9372
X9.3922Y-5.153
X9.4467Y-3.608
X9.49Y-5.1322
X9.5445Y-3.5872
X9.6587Y-2.7975
X9.7565Y-2.7767
X9.7857Y-4.3025
X9.8297Y-1.802
X9.8835Y-4.2817
X9.9152Y-5.8085
X9.9275Y-1.7812
X10.013Y-5.7877
X10.1262Y-4.997
X10.1802Y-3.4525
X10.224Y-4.9762
X10.278Y-3.4317
X10.4055Y-2.625
X10.5055Y-2.625
X10.55Y-4.1845
X10.6045Y-1.688
X10.65Y-4.1845
X10.7045Y-1.688
X10.925Y-4.9335
X10.9445Y-3.4335
X11.025Y-4.9335
X11.0445Y-3.4335
X11.155Y-2.684
X11.255Y-2.684
X11.3Y-4.1845
X11.355Y-1.688
X11.4Y-4.1845
X11.455Y-1.688
X11.694Y-3.4335
X11.794Y-3.4335
X11.9055Y-2.684
X11.957Y-4.934
X12.0055Y-2.684
X12.057Y-4.934
X12.401Y-1.747
X12.4245Y-5.871
X12.501Y-1.747
X12.5185Y-4.1835
X12.5245Y-5.871
X12.6185Y-4.1835
X12.6315Y-3.434
X12.655Y-2.6835
X12.7315Y-3.434
X12.755Y-2.6835
X13.175Y-5.121
X13.175Y-5.871
X13.275Y-5.121
X13.275Y-5.871
X13.427Y-1.7465
X13.527Y-1.7465
X13.593Y-2.4965
X13.693Y-2.4965
X13.7565Y-3.246
X13.8565Y-3.246
X13.9245Y-3.996
X13.925Y-5.871
X14.0245Y-3.996
X14.025Y-5.871
T5
X1.3235Y-1.447
X1.416Y-5.384
X1.4845Y-3.8835
X1.5735Y-1.347
X1.666Y-5.284
X1.672Y-3.8835
X1.697Y-4.634
X1.7155Y-2.384
X1.7345Y-3.7835
X1.739Y-3.134
X1.922Y-3.7835
X1.947Y-4.534
X1.9655Y-2.284
X1.989Y-3.034
X2.266Y-1.3875
X2.4657Y-2.384
X2.516Y-1.2875
X2.6765Y-3.134
X2.703Y-3.884
X2.7157Y-2.284
X2.9145Y-4.6335
X2.9265Y-3.034
X2.953Y-3.784
X3.0165Y-1.387
X3.1645Y-4.5335
X3.2155Y-2.3255
X3.2665Y-1.287
X3.4655Y-2.2255
X3.5076Y-3.118
X3.5351Y-3.891
X3.7451Y-4.702
X3.7729Y-3.0722
X3.7731Y-5.4745
X3.8004Y-3.8452
X3.8596Y-1.4675
X4.0104Y-4.6562
X4.0306Y-2.462
X4.0384Y-5.4287
X4.1249Y-1.4217
X4.2411Y-3.274
X4.2686Y-4.047
X4.2959Y-2.4162
X4.4781Y-4.8575
X4.5064Y-3.2282
X4.5339Y-4.0012
X4.5926Y-1.623
X4.7434Y-4.8117
X4.7641Y-2.6185
X4.8579Y-1.5772
X4.9741Y-3.4305
X5.0006Y-4.2015
X5.0294Y-2.5727
X5.0566Y-5.7475
X5.2121Y-5.0135
X5.2394Y-3.3847
X5.2659Y-4.1557
X5.3219Y-5.7017
X5.4774Y-4.9677
X5.4981Y-2.7745
X5.5086Y-1.8185
X5.7081Y-3.5845
X5.7346Y-4.3575
X5.7634Y-2.7287
X5.7739Y-1.7727
X5.9456Y-5.169
X5.9734Y-3.5387
X5.9999Y-4.3117
X6.1571Y-5.981
X6.2109Y-5.1232
X6.2321Y-2.9295
X6.2416Y-1.9745
X6.4224Y-5.9352
X6.4974Y-2.8837
X6.5069Y-1.9287
X7.087Y-3.8034
X7.286Y-2.0364
X7.2975Y-2.9919
X7.3107Y-3.6536
X7.426Y-4.4979
X7.5097Y-1.8866
X7.5212Y-2.8421
X7.6497Y-4.3481
X7.765Y-5.1929
X7.82Y-3.6469
X7.9887Y-5.0431
X8.0195Y-1.8804
X8.0315Y-2.8364
X8.0437Y-3.4971
X8.1595Y-4.3414
X8.1965Y-5.8669
X8.2432Y-1.7306
X8.2552Y-2.6866
X8.3832Y-4.1916
X8.4202Y-5.7171
X8.499Y-5.0364
X8.553Y-3.4914
X8.7227Y-4.8866
X8.764Y-2.6799
X8.7767Y-3.3416
X8.893Y-4.1849
X8.936Y-1.6854
X8.9877Y-2.5301
X9.1167Y-4.0351
X9.1597Y-1.5356
X9.232Y-4.8804
X9.2865Y-3.3354
X9.4557Y-4.7306
X9.4985Y-2.5249
X9.5102Y-3.1856
X9.6255Y-4.0299
X9.6695Y-1.5294
X9.7222Y-2.3751
X9.755Y-5.5359
X9.8492Y-3.8801
X9.8932Y-1.3796
X9.966Y-4.7244
X9.9787Y-5.3861
X10.02Y-3.1799
X10.1897Y-4.5746
X10.2437Y-3.0301
X10.3055Y-2.325
X10.45Y-3.8845
X10.5045Y-1.388
X10.5555Y-2.225
X10.7Y-3.7845
X10.7545Y-1.288
X10.825Y-4.6335
X10.8445Y-3.1335
X11.055Y-2.384
X11.075Y-4.5335
X11.0945Y-3.0335
X11.2Y-3.8845
X11.255Y-1.388
X11.305Y-2.284
X11.45Y-3.7845
X11.505Y-1.288
X11.594Y-3.1335
X11.8055Y-2.384
X11.844Y-3.0335
X11.857Y-4.634
X12.0555Y-2.284
X12.107Y-4.534
X12.301Y-1.447
X12.3245Y-5.571
X12.4185Y-3.8835
X12.5315Y-3.134
X12.551Y-1.347
X12.555Y-2.3835
X12.5745Y-5.471
X12.6685Y-3.7835
X12.7815Y-3.034
X12.805Y-2.2835
X13.075Y-4.821
X13.075Y-5.571
X13.325Y-4.721
X13.325Y-5.471
X13.327Y-1.4465
X13.493Y-2.1965
X13.577Y-1.3465
X13.6565Y-2.946
X13.743Y-2.0965
X13.8245Y-3.696
X13.825Y-5.571
X13.9065Y-2.846
X14.0745Y-3.596
X14.075Y-5.471
T6
X2.06Y-5.495
X2.24Y-2.86
X4.4Y-5.71
X4.7963Y-1.0997
X9.0233Y-1.0997
X9.475Y-5.69
X13.27Y-1.92
X13.6Y-5.295
T2
G00X6.7399Y-0.9106
M15
G01X6.7399Y-0.9342
M16
G05
G00X6.7399Y-1.0653
M15
G01X6.7399Y-1.1086
M16
G05
G00X7.0801Y-0.9106
M15
G01X7.0801Y-0.9342
M16
G05
G00X7.0801Y-1.0653
M15
G01X7.0801Y-1.1086
M16
G05
T0
M30
