M48
; DRILL file {KiCad 5.1.10} date Fri Jul 30 23:12:36 2021
; FORMAT={-:-/ absolute / inch / decimal}
; #@! TF.CreationDate,2021-07-30T23:12:36+12:00
; #@! TF.GenerationSoftware,Kicad,Pcbnew,5.1.10
; #@! TF.FileFunction,NonPlated,1,2,NPTH
FMAT,2
INCH
T1C0.0256
T2C0.0689
T3C0.1200
T4C0.1570
%
G90
G05
T1
X6.7962Y-1.0661
X7.0238Y-1.0661
T2
X1.2735Y-1.547
X1.366Y-5.484
X1.4345Y-3.9835
X1.622Y-3.9835
X1.647Y-4.734
X1.6655Y-2.484
X1.6735Y-1.547
X1.689Y-3.234
X1.766Y-5.484
X1.8345Y-3.9835
X2.022Y-3.9835
X2.047Y-4.734
X2.0655Y-2.484
X2.089Y-3.234
X2.216Y-1.4875
X2.4157Y-2.484
X2.616Y-1.4875
X2.6265Y-3.234
X2.653Y-3.984
X2.8157Y-2.484
X2.8645Y-4.7335
X2.9665Y-1.487
X3.0265Y-3.234
X3.053Y-3.984
X3.1655Y-2.4255
X3.2645Y-4.7335
X3.3665Y-1.487
X3.4379Y-3.2054
X3.4654Y-3.9784
X3.5655Y-2.4255
X3.6754Y-4.7894
X3.7034Y-5.5619
X3.7899Y-1.5549
X3.8291Y-3.2886
X3.8566Y-4.0616
X3.9609Y-2.5494
X4.0666Y-4.8726
X4.0946Y-5.6451
X4.1714Y-3.3614
X4.1811Y-1.6381
X4.1989Y-4.1344
X4.3521Y-2.6326
X4.4084Y-4.9449
X4.5229Y-1.7104
X4.5626Y-3.4446
X4.5901Y-4.2176
X4.6944Y-2.7059
X4.7996Y-5.0281
X4.9044Y-3.5179
X4.9141Y-1.7936
X4.9309Y-4.2889
X4.9869Y-5.8349
X5.0856Y-2.7891
X5.1424Y-5.1009
X5.2956Y-3.6011
X5.3221Y-4.3721
X5.3781Y-5.9181
X5.4284Y-2.8619
X5.4389Y-1.9059
X5.5336Y-5.1841
X5.6384Y-3.6719
X5.6649Y-4.4449
X5.8196Y-2.9451
X5.8301Y-1.9891
X5.8759Y-5.2564
X6.0296Y-3.7551
X6.0561Y-4.5281
X6.0874Y-6.0684
X6.1624Y-3.0169
X6.1719Y-2.0619
X6.2671Y-5.3396
X6.4786Y-6.1516
X6.5536Y-3.1001
X6.5631Y-2.1451
X7.0589Y-3.9116
X7.2579Y-2.1446
X7.2694Y-3.1001
X7.3979Y-4.6061
X7.4501Y-3.8284
X7.6491Y-2.0614
X7.6606Y-3.0169
X7.7369Y-5.3011
X7.7891Y-4.5229
X7.7919Y-3.7551
X7.9914Y-1.9886
X8.0034Y-2.9446
X8.1281Y-5.2179
X8.1314Y-4.4496
X8.1684Y-5.9751
X8.1831Y-3.6719
X8.3826Y-1.9054
X8.3946Y-2.8614
X8.4709Y-5.1446
X8.5226Y-4.3664
X8.5249Y-3.5996
X8.5596Y-5.8919
X8.7359Y-2.7881
X8.8621Y-5.0614
X8.8649Y-4.2931
X8.9079Y-1.7936
X8.9161Y-3.5164
X9.1271Y-2.7049
X9.2039Y-4.9886
X9.2561Y-4.2099
X9.2584Y-3.4436
X9.2991Y-1.7104
X9.4704Y-2.6331
X9.5951Y-4.9054
X9.5974Y-4.1381
X9.6414Y-1.6376
X9.6496Y-3.3604
X9.7269Y-5.6441
X9.8616Y-2.5499
X9.9379Y-4.8326
X9.9886Y-4.0549
X9.9919Y-3.2881
X10.0326Y-1.5544
X10.1181Y-5.5609
X10.2555Y-2.425
X10.3291Y-4.7494
X10.3831Y-3.2049
X10.4Y-3.9845
X10.4545Y-1.488
X10.6555Y-2.425
X10.775Y-4.7335
X10.7945Y-3.2335
X10.8Y-3.9845
X10.8545Y-1.488
X11.005Y-2.484
X11.15Y-3.9845
X11.175Y-4.7335
X11.1945Y-3.2335
X11.205Y-1.488
X11.405Y-2.484
X11.544Y-3.2335
X11.55Y-3.9845
X11.605Y-1.488
X11.7555Y-2.484
X11.807Y-4.734
X11.944Y-3.2335
X12.1555Y-2.484
X12.207Y-4.734
X12.251Y-1.547
X12.2745Y-5.671
X12.3685Y-3.9835
X12.4815Y-3.234
X12.505Y-2.4835
X12.651Y-1.547
X12.6745Y-5.671
X12.7685Y-3.9835
X12.8815Y-3.234
X12.905Y-2.4835
X13.025Y-4.921
X13.025Y-5.671
X13.277Y-1.5465
X13.425Y-4.921
X13.425Y-5.671
X13.443Y-2.2965
X13.6065Y-3.046
X13.677Y-1.5465
X13.7745Y-3.796
X13.775Y-5.671
X13.843Y-2.2965
X14.0065Y-3.046
X14.1745Y-3.796
X14.175Y-5.671
T3
X1.377Y-4.459
X2.317Y-4.459
X4.6656Y-6.0478
X5.5851Y-6.2432
X7.9614Y-6.3002
X8.8809Y-6.1048
X12.0985Y-4.2585
X13.0385Y-4.2585
T4
X1.377Y-5.059
X1.4735Y-1.547
X1.566Y-5.484
X1.6345Y-3.9835
X1.822Y-3.9835
X1.847Y-4.734
X1.8655Y-2.484
X1.889Y-3.234
X2.317Y-5.059
X2.416Y-1.4875
X2.6157Y-2.484
X2.8265Y-3.234
X2.853Y-3.984
X3.0645Y-4.7335
X3.1665Y-1.487
X3.3655Y-2.4255
X3.6335Y-3.247
X3.661Y-4.02
X3.871Y-4.831
X3.899Y-5.6035
X3.9855Y-1.5965
X4.1565Y-2.591
X4.367Y-3.403
X4.3945Y-4.176
X4.604Y-4.9865
X4.7185Y-1.752
X4.7903Y-5.4609
X4.89Y-2.7475
X5.1Y-3.5595
X5.1265Y-4.3305
X5.1825Y-5.8765
X5.338Y-5.1425
X5.624Y-2.9035
X5.6345Y-1.9475
X5.7098Y-5.6563
X5.834Y-3.7135
X5.8605Y-4.4865
X6.0715Y-5.298
X6.283Y-6.11
X6.358Y-3.0585
X6.3675Y-2.1035
X7.2545Y-3.87
X7.4535Y-2.103
X7.465Y-3.0585
X7.5935Y-4.5645
X7.8367Y-5.7133
X7.9325Y-5.2595
X7.9875Y-3.7135
X8.187Y-1.947
X8.199Y-2.903
X8.327Y-4.408
X8.364Y-5.9335
X8.6665Y-5.103
X8.7205Y-3.558
X8.7562Y-5.5179
X8.9315Y-2.7465
X9.0605Y-4.2515
X9.1035Y-1.752
X9.3995Y-4.947
X9.454Y-3.402
X9.666Y-2.5915
X9.793Y-4.0965
X9.837Y-1.596
X9.9225Y-5.6025
X10.1335Y-4.791
X10.1875Y-3.2465
X10.4555Y-2.425
X10.6Y-3.9845
X10.6545Y-1.488
X10.975Y-4.7335
X10.9945Y-3.2335
X11.205Y-2.484
X11.35Y-3.9845
X11.405Y-1.488
X11.744Y-3.2335
X11.9555Y-2.484
X12.007Y-4.734
X12.0985Y-3.6585
X12.451Y-1.547
X12.4745Y-5.671
X12.5685Y-3.9835
X12.6815Y-3.234
X12.705Y-2.4835
X13.0385Y-3.6585
X13.225Y-4.921
X13.225Y-5.671
X13.477Y-1.5465
X13.643Y-2.2965
X13.8065Y-3.046
X13.9745Y-3.796
X13.975Y-5.671
T0
M30
